<svg version="1.2" xmlns="http://www.w3.org/2000/svg" viewBox="0 0 119 56" width="119" height="56">
	<title>Group 107364-svg</title>
	<style>
		.s0 { fill: #bf843d } 
	</style>
	<path class="s0" d="m21.3 24h-20.8v4.5h20.8z"/>
	<path class="s0" d="m16 10.9h5.3v-4.6z"/>
	<path class="s0" d="m10.8 15.3l-5.4 4.5h15.9v-4.5z"/>
	<path class="s0" d="m112.7 0v0.5h-1.9v4.3h-0.5v-4.3h-1.9v-0.5z"/>
	<path class="s0" d="m114.4 0l1.6 4.2 1.7-4.2h0.8v4.8h-0.6v-4.1l-1.6 4.1h-0.6l-1.6-4.1v4.1h-0.6v-4.8z"/>
	<path fill-rule="evenodd" class="s0" d="m30.4 43.4c0-6.7 5.2-11.8 12.2-11.8 7.1 0 12.3 5 12.3 11.8 0 6.8-5.2 11.8-12.3 11.8-7 0-12.2-5-12.2-11.8zm21.2 0c0-5.1-3.8-8.8-9-8.8-5.1 0-8.9 3.7-8.9 8.8 0 5.1 3.8 8.9 8.9 8.9 5.2 0 9-3.8 9-8.9zm28.1-11.5v23h-2.7l-13.8-17.1v17.1h-3.3v-23h2.7l13.8 17.2v-17.2zm23.7 20.2v2.8h-16.8v-23h16.3v2.9h-13v7h11.6v2.8h-11.6v7.5z"/>
	<path class="s0" d="m42.3 24.2q3.8 0 6.2-3l3.3 3.4q-3.9 4.4-9.2 4.4-5.4 0-8.8-3.4-3.4-3.3-3.4-8.4 0-5.2 3.5-8.6 3.5-3.4 8.6-3.4 5.6 0 9.4 4.3l-3.2 3.6q-2.4-3-6-3-2.9 0-5 1.9-2 1.9-2 5.1 0 3.2 1.9 5.2 2 1.9 4.7 1.9z"/>
	<path class="s0" d="m61 5.7h-5.1v23h5.1z"/>
	<path class="s0" d="m76.4 10.2v18.5h-5.1v-18.5h-6.6v-4.5h18.2v4.5z"/>
	<path class="s0" d="m96.6 28.7h-5.2v-9l-7.9-14h5.5l5 8.6 5-8.6h5.5l-7.9 14z"/>
	<path class="s0" d="m21.3 50.7h-15.2v4.5h15.2z"/>
	<path class="s0" d="m21.3 41.7h-15.2v4.5h15.2z"/>
	<path class="s0" d="m21.3 32.8h-15.2v4.5h15.2z"/>
</svg>